<?xml version="1.0"?>
<svg xmlns="http://www.w3.org/2000/svg" width="50" height="50" viewBox="0 0 50 50">
    <path d="M 25 3 C 23.967 3 23.04425 3.52725 22.53125 4.40625 L 2.4375 39.3125 C 1.8865 40.2785 1.8795 41.4765 2.4375 42.4375 C 2.9745 43.3635 3.92075 43.90625 4.96875 43.90625 C 5.03075 43.90625 5.09275 43.90825 5.09375 43.90625 L 44.8125 43.90625 C 45.9645 43.90625 46.9915 43.2975 47.5625 42.3125 C 48.1305 41.3325 48.1235 40.1685 47.5625 39.1875 L 27.46875 4.40625 C 26.95875 3.53225 26.033 3 25 3 z M 26.1875 18 C 27.2375 18 28.09375 18.85725 28.09375 19.90625 C 28.09375 20.95525 27.2365 21.8125 26.1875 21.8125 C 25.1385 21.8125 24.3125 20.95525 24.3125 19.90625 C 24.3125 18.85725 25.1385 18 26.1875 18 z M 23.1875 21.8125 C 23.3875 21.8125 23.7875 21.99375 24.6875 22.59375 C 25.6875 23.19375 26 23.6875 26 23.6875 C 26.1 23.8875 26.2125 24.10625 26.3125 24.40625 C 26.3125 24.40625 26.97025 28.27625 27.28125 29.78125 L 30.53125 31.40625 C 30.61225 31.44625 30.686 31.5055 30.75 31.5625 C 31.47 30.5165 31.672 30.5 32 30.5 C 32.3 30.5 32.7 30.8 33 31.5 C 33.2 32.1 36 38 36 38 L 26 38 L 27.90625 34.1875 C 28.00625 33.8875 28.4135 33.8125 28.8125 33.8125 C 29.0605 33.8125 29.324 33.5535 29.625 33.1875 L 23.15625 29.96875 C 23.56925 30.73675 24.353 32.207 24.5 32.5 C 24.6 32.7 24.6875 32.9875 24.6875 33.1875 C 24.6875 33.3875 24.8125 36.2125 24.8125 36.8125 C 24.8125 37.5125 24.8 38 24 38 C 23.2 38 23.1875 37 23.1875 37 L 22.6875 32.90625 L 20.5 30.90625 L 18.09375 37.1875 C 18.09375 37.1875 17.80625 38.3 16.90625 38 C 16.10625 37.7 16.2125 36.7 16.3125 36.5 C 16.4125 36.3 18.5875 28.70625 18.6875 28.40625 C 18.7275 28.28525 18.803 28.06675 18.875 27.84375 L 17.34375 27.09375 C 16.93075 26.88975 16.75975 26.432 16.84375 26 C 16.73475 25.787 16.701 25.4875 17 25.1875 C 17 25.1875 19.7125 22.2875 19.8125 22.1875 C 19.9125 22.0875 20.0125 22 20.3125 22 C 20.5125 21.9 23.1875 21.8125 23.1875 21.8125 z M 20.40625 23.90625 L 18.75 25.5625 L 19.84375 26.09375 C 20.31375 25.42275 20.99025 24.50025 21.40625 23.90625 L 20.40625 23.90625 z M 24.8125 26.09375 L 23.5625 27.9375 L 25.46875 28.90625 C 25.23175 27.99325 24.9855 26.83975 24.8125 26.09375 z"/>
</svg>
